# xmcd CD database file
#
# Track frame offsets:
#	150
#	17405
#	29738
#	64077
#	77266
#	88619
#	105608
#	114383
#	129901
#	144867
#	165771
#	177906
#
# Disc length: 2762 seconds
#
# Revision: 0
# Processed by: cddbd v1.5PL3 Copyright (c) Steve Scherf et al.
# Submitted via: CDex 1.40Release
#
DISCID=830ac80c
DTITLE=Custódio Castelo - Tempus
DYEAR=2003
DGENRE=Fado/Portugal
TTITLE0=Sinos De Waibel
TTITLE1=Tempus
TTITLE2=Homenagem A Paredes
TTITLE3=Terra De Pó
TTITLE4=Quase Morna
TTITLE5=Maria Lunia
TTITLE6=Velho Fado Lisboa
TTITLE7=Amsterdam
TTITLE8=Dança Em Tango
TTITLE9=Martim
TTITLE10=Ausente
TTITLE11=Converza
EXTD=YEAR: 2003 ID3G: 250
EXTT0=
EXTT1=
EXTT2=
EXTT3=
EXTT4=
EXTT5=
EXTT6=
EXTT7=
EXTT8=
EXTT9=
EXTT10=
EXTT11=
PLAYORDER=
